<?xml version="1.0" encoding="UTF-8"?>
<!DOCTYPE svg PUBLIC "-//W3C//DTD SVG 1.1//EN" "http://www.w3.org/Graphics/SVG/1.1/DTD/svg11.dtd">
<!-- Creator: CorelDRAW -->
<svg xmlns="http://www.w3.org/2000/svg" xml:space="preserve" width="2048px" height="2048px" style="shape-rendering:geometricPrecision; text-rendering:geometricPrecision; image-rendering:optimizeQuality; fill-rule:evenodd; clip-rule:evenodd"
viewBox="0 0 2048 2048"
 xmlns:xlink="http://www.w3.org/1999/xlink">
 <defs>
  <style type="text/css">
   <![CDATA[
    .fil2 {fill:none}
    .fil3 {fill:#00B0FF}
    .fil4 {fill:#4FC3F7}
    .fil1 {fill:#D81B60}
    .fil0 {fill:#F06292}
    .fil5 {fill:#01579B;fill-rule:nonzero}
   ]]>
  </style>
   <clipPath id="id0">
    <path d="M1024 -0.0011811c565.539,0 1024,458.462 1024,1024 0,565.539 -458.462,1024 -1024,1024 -565.539,0 -1024,-458.462 -1024,-1024 0,-565.539 458.462,-1024 1024,-1024z"/>
   </clipPath>
 </defs>
 <g id="Layer_x0020_1">
  <metadata id="CorelCorpID_0Corel-Layer"/>
  <path class="fil0" d="M1024 -0.0011811c565.539,0 1024,458.462 1024,1024 0,565.539 -458.462,1024 -1024,1024 -565.539,0 -1024,-458.462 -1024,-1024 0,-565.539 458.462,-1024 1024,-1024z"/>
  <g style="clip-path:url(#id0)">
   <g id="_466501688">
    <g>
     <polygon id="_3967969601" class="fil1" points="1066.73,611.918 2202.61,1747.8 2205.61,1751.13 2208.58,1754.53 2211.5,1758 2214.39,1761.55 2217.24,1765.18 2220.05,1768.88 2222.82,1772.66 2225.55,1776.51 2228.24,1780.44 2230.88,1784.45 2233.48,1788.54 2236.04,1792.7 2238.55,1796.94 2241.01,1801.25 2243.43,1805.65 2245.8,1810.12 2248.12,1814.67 2250.39,1819.3 2252.61,1824.01 1116.73,688.128 1114.51,683.421 1112.24,678.791 1109.92,674.24 1107.55,669.767 1105.13,665.372 1102.67,661.056 1100.16,656.816 1097.6,652.655 1095,648.57 1092.36,644.562 1089.67,640.632 1086.94,636.776 1084.17,632.999 1081.36,629.297 1078.51,625.671 1075.62,622.119 1072.69,618.644 1069.73,615.244 "/>
     <polygon id="_396799432" class="fil1" points="1331.47,752.777 2467.35,1888.66 2473.75,1896 2479.98,1903.73 2486.05,1911.84 2491.96,1920.34 2497.71,1929.22 2503.3,1938.5 2508.73,1948.17 1372.85,812.285 1367.42,802.616 1361.83,793.339 1356.08,784.453 1350.17,775.957 1344.1,767.846 1337.86,760.12 "/>
     <polygon id="_396826216" class="fil1" points="1523.91,897.342 2659.79,2033.22 2666.67,2041.52 2673.17,2050.12 2679.31,2059.01 2685.05,2068.2 2690.4,2077.68 2695.34,2087.43 2699.86,2097.45 2703.95,2107.74 2707.59,2118.28 2710.79,2129.08 2713.52,2140.11 2715.78,2151.38 2717.56,2162.87 2718.84,2174.59 2719.62,2186.52 2719.88,2198.65 2719.56,2211.65 2718.61,2224.47 2717.05,2237.12 2714.89,2249.56 2712.15,2261.79 2708.84,2273.78 2704.98,2285.53 2700.58,2297.01 2695.67,2308.21 2690.24,2319.12 2684.33,2329.72 2677.95,2339.98 2671.11,2349.9 2663.82,2359.46 2656.11,2368.65 2647.99,2377.44 2639.47,2385.82 2630.57,2393.78 2621.3,2401.3 2611.69,2408.36 2601.74,2414.95 2591.47,2421.05 2580.9,2426.64 2570.05,2431.72 2558.92,2436.25 2547.53,2440.24 2535.91,2443.65 2524.06,2446.48 2512,2448.71 2499.75,2450.33 2487.31,2451.31 2474.72,2451.63 1338.84,1315.75 1351.43,1315.42 1363.87,1314.44 1376.12,1312.83 1388.18,1310.6 1400.03,1307.77 1411.65,1304.36 1423.04,1300.37 1434.17,1295.83 1445.02,1290.76 1455.59,1285.17 1465.86,1279.07 1475.81,1272.48 1485.42,1265.42 1494.68,1257.9 1503.58,1249.94 1512.1,1241.56 1520.23,1232.76 1527.94,1223.58 1535.23,1214.02 1542.07,1204.1 1548.45,1193.83 1554.36,1183.24 1559.78,1172.33 1564.7,1161.13 1569.1,1149.65 1572.96,1137.9 1576.27,1125.9 1579.01,1113.68 1581.17,1101.23 1582.73,1088.59 1583.68,1075.76 1584,1062.77 1583.74,1050.63 1582.96,1038.71 1581.68,1026.99 1579.9,1015.5 1577.64,1004.23 1574.91,993.194 1571.71,982.402 1568.06,971.859 1563.98,961.572 1559.46,951.549 1554.52,941.795 1549.17,932.32 1543.43,923.13 1537.29,914.233 1530.78,905.635 "/>
     <polygon id="_396812704" class="fil1" points="1338.84,1315.75 2474.72,2451.63 2159.98,2451.63 1024.09,1315.75 "/>
     <polygon id="_396806392" class="fil1" points="1024.09,1315.75 2159.98,2451.63 2159.88,2451.63 1024,1315.75 "/>
     <polygon id="_396824008" class="fil1" points="1024,1315.75 2159.88,2451.63 1981.06,2451.63 845.174,1315.75 "/>
     <polygon id="_396809200" class="fil1" points="798.506,1315.75 1934.39,2451.63 1844.51,2451.63 1818.55,2450.4 1793.88,2446.8 1770.52,2440.97 1748.52,2433.05 1727.9,2423.2 1708.7,2411.55 1690.95,2398.24 555.069,1262.36 572.822,1275.66 592.023,1287.32 612.641,1297.17 634.641,1305.08 657.994,1310.92 682.666,1314.52 708.628,1315.75 "/>
     <polygon id="_396826240" class="fil1" points="845.174,1511.71 1981.06,2647.59 1934.39,2647.59 798.506,1511.71 "/>
     <polygon id="_396795616" class="fil1" points="845.174,1315.75 1981.06,2451.63 1981.06,2647.59 845.174,1511.71 "/>
    </g>
    <path id="_466480424" class="fil1" d="M674.457 811.693c-18.3319,-233.732 200.648,-337.966 349.543,-236.842l0.796064 0.549213c36.3674,24.9201 68.5241,62.0871 91.9312,112.728 114.98,-19.0087 199.023,18.9201 256.123,124.156 121.286,23.3374 211.151,119.988 211.151,250.482 0,139.458 -110.006,252.985 -245.162,252.985l-314.745 0 -0.0944883 0 -178.826 0 0 195.959 -46.6678 0 0 -195.959 -89.8784 0c-283.68,0 -352.873,-429.032 -34.1705,-504.059z"/>
   </g>
  </g>
  <path class="fil2" d="M1024 -0.0011811c565.539,0 1024,458.462 1024,1024 0,565.539 -458.462,1024 -1024,1024 -565.539,0 -1024,-458.462 -1024,-1024 0,-565.539 458.462,-1024 1024,-1024z"/>
  <path class="fil3" d="M1024 574.851c-148.895,-101.124 -367.875,3.10984 -349.543,236.842 -318.703,75.0272 -249.509,504.059 34.1705,504.059l315.372 0 0 -740.901z"/>
  <path class="fil4" d="M1338.84 1315.75c135.156,0 245.162,-113.528 245.162,-252.985 0,-130.494 -89.8642,-227.145 -211.151,-250.482 -57.1004,-105.236 -141.143,-143.165 -256.123,-124.156 -23.4071,-50.641 -55.5638,-87.8079 -91.9312,-112.728l-0.796064 -0.549213 0 740.901 0.0944883 0 314.745 0z"/>
  <polygon class="fil5" points="642.01,1121.88 821.84,942.049 1001.67,1121.88 968.676,1154.88 845.174,1031.37 845.174,1511.71 798.506,1511.71 798.506,1031.37 675.004,1154.88 "/>
 </g>
</svg>
